<svg width="93" height="104" viewBox="0 0 93 104" fill="none" xmlns="http://www.w3.org/2000/svg">
<path d="M71.7616 1.52588e-05H66.1479V104H71.7616C74.8622 104 77.3753 101.19 77.3753 97.7223V6.27768C77.3753 2.81032 74.8622 1.52588e-05 71.7616 1.52588e-05Z" fill="#404242"/>
<path d="M66.1479 1.52588e-05H21.2384C18.1378 1.52588e-05 15.6248 2.81032 15.6248 6.27768V97.7223C15.6248 101.19 18.1378 104 21.2384 104H66.1479C69.2485 104 71.7616 101.19 71.7616 97.7223V85.167L54.9205 45.7223L71.7616 6.27768C71.7616 2.81032 69.2485 1.52588e-05 66.1479 1.52588e-05Z" fill="#565959"/>
<path d="M52.1137 91.4447H46.5V97.7223H52.1137C53.6638 97.7223 54.9205 96.317 54.9205 94.5835C54.9205 92.85 53.6638 91.4447 52.1137 91.4447Z" fill="#8F8F8B"/>
<path d="M49.3068 94.5835C49.3068 92.85 48.0501 91.4447 46.5 91.4447H40.8863C39.3362 91.4447 38.0795 92.85 38.0795 94.5835C38.0795 96.317 39.3362 97.7223 40.8863 97.7223H46.5C48.0501 97.7223 49.3068 96.317 49.3068 94.5835Z" fill="#ADACA7"/>
<path d="M46.5 45.7223L66.1479 85.167H71.7616V6.27768H66.1479L46.5 45.7223Z" fill="#4B88D5"/>
<path d="M54.4389 6.27768L50.4694 10.7166C49.4493 11.852 48.0468 12.5553 46.5 12.5553C44.9533 12.5553 43.5508 11.852 42.5343 10.7166C42.5306 10.7166 38.5611 6.27768 38.5611 6.27768H21.2384V85.167H66.1479V6.27768H54.4389Z" fill="#69A7FF"/>
<path d="M46.5 7.5332C47.1201 7.5332 47.6227 6.97108 47.6227 6.27767C47.6227 5.58426 47.1201 5.02214 46.5 5.02214C45.8799 5.02214 45.3773 5.58426 45.3773 6.27767C45.3773 6.97108 45.8799 7.5332 46.5 7.5332Z" fill="#404242"/>
</svg>
